<?xml version="1.0" encoding="UTF-8" standalone="no"?>
<svg
   xmlns:dc="http://purl.org/dc/elements/1.1/"
   xmlns:cc="http://creativecommons.org/ns#"
   xmlns:rdf="http://www.w3.org/1999/02/22-rdf-syntax-ns#"
   xmlns:svg="http://www.w3.org/2000/svg"
   xmlns="http://www.w3.org/2000/svg"
   xmlns:sodipodi="http://sodipodi.sourceforge.net/DTD/sodipodi-0.dtd"
   xmlns:inkscape="http://www.inkscape.org/namespaces/inkscape"
   width="210mm"
   height="297mm"
   viewBox="0 0 210 297"
   version="1.1"
   id="svg908"
   inkscape:version="1.0.2-2 (e86c870879, 2021-01-15)"
   sodipodi:docname="Kreator.svg">
  <defs
     id="defs902">
    <filter
       inkscape:collect="always"
       style="color-interpolation-filters:sRGB"
       id="filter922-0"
       x="-1.9200001e-05"
       width="1.0000384"
       y="-1.9200002e-05"
       height="1.0000384">
      <feGaussianBlur
         inkscape:collect="always"
         stdDeviation="0.0012990288"
         id="feGaussianBlur924-1" />
    </filter>
    <filter
       inkscape:collect="always"
       style="color-interpolation-filters:sRGB"
       id="filter922-0-1"
       x="-1.9200001e-05"
       width="1.0000384"
       y="-1.9200002e-05"
       height="1.0000384">
      <feGaussianBlur
         inkscape:collect="always"
         stdDeviation="0.0012990288"
         id="feGaussianBlur924-1-4" />
    </filter>
    <filter
       inkscape:collect="always"
       style="color-interpolation-filters:sRGB"
       id="filter922-0-0"
       x="-1.9200001e-05"
       width="1.0000384"
       y="-1.9200002e-05"
       height="1.0000384">
      <feGaussianBlur
         inkscape:collect="always"
         stdDeviation="0.0012990288"
         id="feGaussianBlur924-1-1" />
    </filter>
  </defs>
  <sodipodi:namedview
     id="base"
     pagecolor="#ffffff"
     bordercolor="#666666"
     borderopacity="1.0"
     inkscape:pageopacity="0.0"
     inkscape:pageshadow="2"
     inkscape:zoom="0.35"
     inkscape:cx="562.54462"
     inkscape:cy="191.42857"
     inkscape:document-units="mm"
     inkscape:current-layer="layer1"
     inkscape:document-rotation="0"
     showgrid="false"
     inkscape:window-width="1267"
     inkscape:window-height="728"
     inkscape:window-x="83"
     inkscape:window-y="0"
     inkscape:window-maximized="0"
     showguides="true"
     inkscape:guide-bbox="true" />
  <metadata
     id="metadata905">
    <rdf:RDF>
      <cc:Work
         rdf:about="">
        <dc:format>image/svg+xml</dc:format>
        <dc:type
           rdf:resource="http://purl.org/dc/dcmitype/StillImage" />
        <dc:title />
      </cc:Work>
    </rdf:RDF>
  </metadata>
  <g
     inkscape:label="Layer 1"
     inkscape:groupmode="layer"
     id="layer1">
    <g
       id="g1799"
       inkscape:export-xdpi="15.034259"
       inkscape:export-ydpi="15.034259">
      <path
         style="fill:#424874;fill-opacity:1;stroke-width:0.362452;filter:url(#filter922-0)"
         d="M 184.528,172.64873 V 45.065564 c 0,-9.604984 -7.79272,-17.397705 -17.39771,-17.397705 H 39.547115 c -9.604985,0 -17.397705,7.792721 -17.397705,17.397705 V 172.64873 c 0,9.60499 7.79272,17.39771 17.397705,17.39771 H 167.13029 c 9.60499,0 17.39771,-7.79272 17.39771,-17.39771 z"
         id="path10-3"
         transform="matrix(0.99879736,0,0,0.99879766,4.8867694,-10.452456)" />
      <g
         id="g1786"
         transform="translate(-193.67522,2.267854)">
        <path
           style="fill:#ffffff;stroke-width:0.30724;filter:url(#filter922-0)"
           d="m 57.264349,144.99167 c -3.153881,0 -5.708394,-1.89442 -5.708394,-4.23334 v -8.46666 c 0,-2.33892 2.554513,-4.23334 5.708394,-4.23334 h 22.833602 c 3.153881,0 5.708394,1.89442 5.708394,4.23334 v 8.46666 c 0,2.33892 -2.554513,4.23334 -5.708394,4.23334 z"
           id="path27-3"
           transform="matrix(0.99702601,0,0,1.0000379,199.20576,-13.762493)" />
        <path
           style="fill:#ffffff;stroke-width:0.30724;filter:url(#filter922-0)"
           d="m 57.264349,167.97262 c -3.153881,0 -5.708394,-1.89442 -5.708394,-4.23334 v -8.46666 c 0,-2.33892 2.554513,-4.23334 5.708394,-4.23334 h 22.833602 c 3.153881,0 5.708394,1.89442 5.708394,4.23334 v 8.46666 c 0,2.33892 -2.554513,4.23334 -5.708394,4.23334 z"
           id="path27-5-7"
           transform="matrix(0.99702601,0,0,1.0000379,199.20576,-13.762493)" />
        <path
           style="fill:#ffffff;stroke-width:0.341903;filter:url(#filter922-0)"
           d="m 58.625062,119.59167 c -3.905673,0 -7.069107,-1.89442 -7.069107,-4.23334 v -8.46666 c 0,-2.33892 3.163434,-4.23334 7.069107,-4.23334 h 56.552898 c 3.9057,0 7.06911,1.89442 7.06911,4.23334 v 8.46666 c 0,2.33892 -3.16341,4.23334 -7.06911,4.23334 z"
           id="path23-1-8"
           transform="matrix(0.70916783,0,0,1.0000379,214.04656,-13.762493)" />
        <path
           style="fill:#ffffff;stroke-width:0.30724;filter:url(#filter922-0-1)"
           d="m 57.264349,167.97262 c -3.153881,0 -5.708394,-1.89442 -5.708394,-4.23334 v -8.46666 c 0,-2.33892 2.554513,-4.23334 5.708394,-4.23334 h 22.833602 c 3.153881,0 5.708394,1.89442 5.708394,4.23334 v 8.46666 c 0,2.33892 -2.554513,4.23334 -5.708394,4.23334 z"
           id="path27-5-7-3"
           transform="matrix(0.99702601,0,0,1.0000379,198.3743,-113.24959)" />
        <path
           style="fill:#ffffff;stroke-width:0.30724;filter:url(#filter922-0-0)"
           d="m 57.264349,167.97262 c -3.153881,0 -5.708394,-1.89442 -5.708394,-4.23334 v -8.46666 c 0,-2.33892 2.554513,-4.23334 5.708394,-4.23334 h 22.833602 c 3.153881,0 5.708394,1.89442 5.708394,4.23334 v 8.46666 c 0,2.33892 -2.554513,4.23334 -5.708394,4.23334 z"
           id="path27-5-7-2"
           transform="matrix(0.99702601,0,0,1.0000379,198.3743,-87.848628)" />
        <path
           style="fill:#ffffff;stroke-width:0.30724;filter:url(#filter922-0-0)"
           d="m 57.264349,167.97262 c -3.153881,0 -5.708394,-1.89442 -5.708394,-4.23334 v -8.46666 c 0,-2.33892 2.554513,-4.23334 5.708394,-4.23334 h 22.833602 c 3.153881,0 5.708394,1.89442 5.708394,4.23334 v 8.46666 c 0,2.33892 -2.554513,4.23334 -5.708394,4.23334 z"
           id="path1756"
           transform="matrix(0.99702601,0,0,1.0000379,242.29541,-87.848628)" />
        <path
           style="fill:#ffffff;stroke-width:0.30724;filter:url(#filter922-0-1)"
           d="m 57.264349,167.97262 c -3.153881,0 -5.708394,-1.89442 -5.708394,-4.23334 v -8.46666 c 0,-2.33892 2.554513,-4.23334 5.708394,-4.23334 h 22.833602 c 3.153881,0 5.708394,1.89442 5.708394,4.23334 v 8.46666 c 0,2.33892 -2.554513,4.23334 -5.708394,4.23334 z"
           id="path1771"
           transform="matrix(0.99702601,0,0,1.0000379,268.22474,-113.24959)" />
        <path
           style="fill:#ffffff;stroke-width:0.30724;filter:url(#filter922-0-0)"
           d="m 57.264349,167.97262 c -3.153881,0 -5.708394,-1.89442 -5.708394,-4.23334 v -8.46666 c 0,-2.33892 2.554513,-4.23334 5.708394,-4.23334 h 22.833602 c 3.153881,0 5.708394,1.89442 5.708394,4.23334 v 8.46666 c 0,2.33892 -2.554513,4.23334 -5.708394,4.23334 z"
           id="path1773"
           transform="matrix(0.99702601,0,0,-1.0000379,242.29541,282.50405)" />
        <path
           style="fill:#ffffff;stroke-width:0.30724;filter:url(#filter922-0-1)"
           d="m 57.264349,167.97262 c -3.153881,0 -5.708394,-1.89442 -5.708394,-4.23334 v -8.46666 c 0,-2.33892 2.554513,-4.23334 5.708394,-4.23334 h 22.833602 c 3.153881,0 5.708394,1.89442 5.708394,4.23334 v 8.46666 c 0,2.33892 -2.554513,4.23334 -5.708394,4.23334 z"
           id="path1775"
           transform="matrix(0.99702601,0,0,-1.0000379,268.22474,305.2615)" />
      </g>
    </g>
  </g>
</svg>
